<svg class="svg-icon" style="width: 1em; height: 1em;vertical-align: middle;fill: currentColor;overflow: hidden;" viewBox="0 0 1024 1024" version="1.1" xmlns="http://www.w3.org/2000/svg"><path d="M345.216 914.656c-25.856-10.688-43.904-11.808-79.808-8.128-36.704 3.776-51.488 3.68-73.6-4.608-14.944-5.632-28.768-14.816-41.856-27.872-13.056-13.088-22.24-26.88-27.84-41.888-8.32-22.08-8.416-36.864-4.64-73.568 3.68-35.904 2.56-53.952-8.128-79.808-8.48-20.48-19.456-34.944-35.808-49.6-3.424-3.072-7.008-6.112-11.872-10.112l-12.768-10.432C15.392 580.608 0 555.008 0 512s15.36-68.608 48.896-96.64l12.768-10.432c4.864-4 8.448-7.04 11.872-10.112 16.352-14.656 27.328-29.12 35.808-49.6 10.688-25.856 11.808-43.904 8.128-79.808-3.776-36.704-3.68-51.488 4.608-73.6 5.632-14.944 14.816-28.768 27.872-41.856 13.088-13.056 26.88-22.24 41.888-27.84 22.08-8.32 36.864-8.416 73.568-4.64 35.904 3.68 53.952 2.56 79.808-8.128 20.48-8.48 34.944-19.456 49.6-35.808 3.072-3.424 6.112-7.008 10.112-11.872l10.432-12.768C443.392 15.392 468.992 0 512 0s68.608 15.36 96.64 48.896l10.432 12.768c4 4.864 7.04 8.448 10.112 11.872 14.656 16.352 29.12 27.328 49.6 35.808 25.856 10.688 43.904 11.808 79.808 8.128 36.704-3.776 51.488-3.68 73.6 4.608 14.944 5.632 28.768 14.816 41.856 27.872 13.056 13.088 22.24 26.88 27.84 41.888 8.32 22.08 8.416 36.864 4.64 73.568-3.68 35.904-2.56 53.952 8.128 79.808 8.48 20.48 19.456 34.944 35.808 49.6 3.424 3.072 7.008 6.112 11.872 10.112l12.768 10.432C1008.608 443.392 1024 468.992 1024 512s-15.36 68.608-48.896 96.64l-12.768 10.432c-4.864 4-8.448 7.04-11.872 10.112-16.352 14.656-27.328 29.12-35.808 49.6-10.688 25.856-11.808 43.904-8.128 79.808 3.776 36.704 3.68 51.488-4.608 73.6-5.632 14.944-14.816 28.768-27.872 41.856-13.088 13.056-26.88 22.24-41.888 27.84-22.08 8.32-36.864 8.416-73.568 4.64-35.904-3.68-53.952-2.56-79.808 8.128-20.48 8.48-34.944 19.456-49.6 35.808-3.072 3.424-6.112 7.008-10.112 11.872l-10.432 12.768C580.608 1008.608 555.008 1024 512 1024s-68.608-15.36-96.64-48.896l-10.432-12.768c-4-4.864-7.04-8.448-10.112-11.872-14.656-16.352-29.12-27.328-49.6-35.808z m12.224-29.568C442.304 920.256 434.72 992 512 992s69.696-71.744 154.56-106.88c84.832-35.168 130.24 20.928 184.864-33.696 54.624-54.656-1.472-100.032 33.664-184.864C920.256 581.696 992 589.28 992 512s-71.744-69.696-106.88-154.56c-35.168-84.832 20.928-130.24-33.696-184.864-54.656-54.624-100.032 1.472-184.864-33.664C581.696 103.744 589.28 32 512 32s-69.696 71.744-154.56 106.88C272.64 174.08 227.2 117.984 172.576 172.608 117.952 227.232 174.08 272.64 138.912 357.44 103.744 442.304 32 434.72 32 512s71.744 69.696 106.88 154.56c35.168 84.832-20.928 130.24 33.696 184.864 54.656 54.624 100.032-1.472 184.864 33.664zM512 832c-176.736 0-320-143.264-320-320S335.264 192 512 192s320 143.264 320 320-143.264 320-320 320z m0-64a256 256 0 1 0 0-512 256 256 0 0 0 0 512z" fill="#5E676F" /></svg>